<?xml version="1.0" encoding="UTF-8"?>
<svg id="Layer_2" data-name="Layer 2" xmlns="http://www.w3.org/2000/svg" viewBox="0 0 750 501">
  <defs>
    <style>
      .cls-1 {
        fill: #fff;
      }

      .cls-2 {
        opacity: .5;
      }

      .cls-3 {
        fill: #455a64;
      }

      .cls-4 {
        fill: #e8505b;
      }

      .cls-5 {
        opacity: .3;
      }

      .cls-6 {
        fill: #e0e0e0;
      }

      .cls-6, .cls-7 {
        stroke: #1a202c;
        stroke-miterlimit: 10;
      }

      .cls-8 {
        fill: #a36957;
      }

      .cls-9 {
        fill: #c1d7ef;
      }

      .cls-7 {
        fill: #5b7189;
      }

      .cls-10 {
        fill: #263238;
      }

      .cls-11 {
        fill: #7c3b29;
      }

      .cls-12 {
        fill: #181c28;
      }
    </style>
  </defs>
  <g id="Plant">
    <g>
      <rect class="cls-12" width="750" height="501"/>
      <g>
        <path class="cls-7" d="m695.43,267.24s-10.41-5.62-20.29,18.97c-9.88,24.59-13.21,38.55-13.21,38.55,0,0-2.73,5.21-6.4,2.29-3.67-2.92-9.12-11.64-14.73-9.48-5.81,2.24-7.18,9.07-5.17,18.76,2.01,9.68,5.64,31.06,5.96,32.99.31,1.9-.53,4.81-3.35,3.23-2.82-1.59-19.63-17.24-26.58-8.82-6.95,8.42,3.09,34.47,4.13,37.34,1.04,2.87.58,4.18-.75,5.03-1.33.85-6.48-4.94-11.45-9.2-4.96-4.26-11.46-8.32-15.07-3.13-3.6,5.19-3.1,25.37,18.9,56.25l11.13,13.64,17.5-2.55c37.12-7.74,51.18-22.21,52.06-28.47.88-6.26-6.65-7.69-13.19-7.93-6.53-.24-14.25.51-14.65-1.01-.4-1.53.15-2.8,2.86-4.2,2.71-1.4,27.77-13.71,28.38-24.62.61-10.9-22.36-10.81-25.51-11.56s-1.79-3.46-.27-4.64c1.55-1.2,18.72-14.43,26.77-20.18,8.05-5.74,11.68-11.69,8.93-17.28-2.65-5.39-12.57-2.69-17.25-3.04-4.68-.35-3.14-6.03-3.14-6.03,0,0,7.04-12.51,16.47-37.28,9.43-24.76-2.33-27.72-2.33-27.72"/>
        <path class="cls-6" d="m619.13,459.98c6.99-18.16,16.87-43.17,27.88-70.75,11-27.58,20.94-52.55,28.03-70.67,3.53-9.04,6.39-16.37,8.38-21.47.99-2.51,1.75-4.47,2.29-5.83.26-.65.46-1.15.61-1.51.14-.34.23-.51.23-.51,0,0-.05.18-.17.53-.13.37-.32.88-.55,1.53-.51,1.37-1.24,3.34-2.18,5.87-1.9,5.1-4.7,12.46-8.21,21.54-6.99,18.16-16.87,43.16-27.87,70.74-11,27.59-20.94,52.56-28.04,70.68"/>
        <path class="cls-6" d="m647.93,330.08s.24.39.56,1.15c.33.75.76,1.85,1.29,3.22,1.05,2.73,2.4,6.54,3.81,10.77,1.37,4.17,2.61,7.94,3.56,10.85.43,1.29.79,2.38,1.09,3.28.26.77.39,1.21.35,1.23-.04.02-.24-.39-.57-1.14-.32-.75-.76-1.85-1.28-3.22-1.02-2.74-2.32-6.57-3.73-10.8-1.4-4.16-2.66-7.91-3.64-10.82-.44-1.29-.81-2.38-1.11-3.28-.26-.78-.38-1.21-.34-1.23Z"/>
        <path class="cls-6" d="m660.24,360.74c-.06-.16,7.67-3.29,17.26-7,9.6-3.71,17.42-6.59,17.48-6.44.06.16-7.67,3.29-17.26,7-9.59,3.71-17.42,6.59-17.48,6.44Z"/>
        <path class="cls-6" d="m641.43,402.33s.46-.11,1.29-.19c.96-.08,2.14-.19,3.52-.31,2.97-.26,7.07-.64,11.58-1.22,4.51-.57,8.58-1.23,11.52-1.72,1.37-.23,2.53-.42,3.48-.58.82-.13,1.28-.18,1.29-.14,0,.04-.44.17-1.25.37-.81.2-1.99.47-3.45.77-2.93.6-6.99,1.33-11.52,1.9-4.52.58-8.64.9-11.63,1.05-1.49.07-2.7.12-3.54.12-.84,0-1.3,0-1.3-.05Z"/>
        <path class="cls-6" d="m624.2,377.05s.31.3.78.91c.47.61,1.14,1.51,1.95,2.62,1.63,2.23,3.84,5.33,6.25,8.77,2.41,3.45,4.57,6.59,6.11,8.88.77,1.15,1.38,2.08,1.8,2.73.41.65.62,1.02.59,1.05s-.31-.3-.78-.91c-.47-.61-1.14-1.51-1.95-2.62-1.63-2.23-3.84-5.33-6.26-8.78-2.41-3.45-4.57-6.59-6.11-8.88-.77-1.14-1.38-2.08-1.8-2.73-.41-.65-.63-1.02-.59-1.05Z"/>
        <path class="cls-6" d="m602.93,411.66s.38.4.99,1.18c.66.89,1.51,2.01,2.51,3.35,2.1,2.84,4.97,6.8,8.1,11.18,3.14,4.39,5.95,8.38,7.96,11.29.94,1.38,1.73,2.54,2.36,3.46.55.82.83,1.29.8,1.32-.03.02-.38-.4-.99-1.18-.67-.89-1.51-2.01-2.51-3.35-2.1-2.84-4.97-6.8-8.1-11.18-3.14-4.39-5.95-8.38-7.96-11.29-.94-1.38-1.73-2.54-2.36-3.46-.55-.82-.83-1.29-.8-1.32Z"/>
        <path class="cls-6" d="m625.32,442.52s.58-.14,1.63-.27c1.16-.14,2.66-.33,4.45-.55,3.76-.47,8.94-1.13,14.64-2.02,5.71-.88,10.85-1.81,14.57-2.51,1.77-.33,3.25-.61,4.41-.82,1.04-.19,1.62-.27,1.63-.23,0,.04-.55.2-1.58.46-1.03.26-2.52.61-4.37,1.01-3.7.81-8.84,1.81-14.56,2.69-5.71.89-10.92,1.49-14.69,1.85-1.89.18-3.41.3-4.47.36-1.06.07-1.64.08-1.65.04Z"/>
      </g>
      <g>
        <g>
          <rect class="cls-7" x="54.72" y="349.89" width="153.6" height="70.84"/>
          <path class="cls-7" d="m204.67,417.39H58.24v-63.77h146.43v63.77Zm-145.48-.96h144.52v-61.86H59.19v61.86Z"/>
          <rect class="cls-7" x="208.32" y="349.89" width="37.52" height="70.84"/>
          <path class="cls-7" d="m58.71,373.35h145.48c.25,0,.25-.39,0-.39H58.71c-.25,0-.25.39,0,.39h0Z"/>
          <path class="cls-7" d="m131.93,373.16c.44-6.29.39-12.95.05-19.24-.01-.25-.38-.25-.39,0-.34,6.29-.39,12.95.05,19.24.01.19.28.19.29,0h0Z"/>
          <path class="cls-7" d="m171.08,363.54c0,1.09-.89,1.98-1.98,1.98s-1.98-.89-1.98-1.98.89-1.98,1.98-1.98,1.98.89,1.98,1.98Z"/>
          <path class="cls-7" d="m94.74,363.54c0,1.09-.89,1.98-1.98,1.98s-1.98-.89-1.98-1.98.89-1.98,1.98-1.98,1.98.89,1.98,1.98Z"/>
          <path class="cls-7" d="m133.43,385.5c0,1.09-.89,1.98-1.98,1.98s-1.98-.89-1.98-1.98.89-1.98,1.98-1.98,1.98.89,1.98,1.98Z"/>
          <polygon class="cls-7" points="73.09 420.73 65.18 465.21 69.63 465.21 84.21 420.73 73.09 420.73"/>
          <polygon class="cls-7" points="197.46 420.73 204.07 465.28 199.62 465.28 186.34 420.73 197.46 420.73"/>
          <polygon class="cls-7" points="227.15 420.73 234.64 465.28 230.2 465.28 216.03 420.73 227.15 420.73"/>
          <path class="cls-7" d="m133.3,405.55c0,1.09-.89,1.98-1.98,1.98s-1.98-.89-1.98-1.98.89-1.98,1.98-1.98,1.98.89,1.98,1.98Z"/>
          <path class="cls-7" d="m58.71,395.29h145.48c.25,0,.25-.39,0-.39H58.71c-.25,0-.25.39,0,.39h0Z"/>
        </g>
        <g>
          <rect class="cls-7" x="133.99" y="298.02" width="9.45" height="46.44" transform="translate(459.23 180.83) rotate(89.7)"/>
          <g>
            <rect class="cls-7" x="134.28" y="316.6" width="14.69" height="51.76" transform="translate(483.36 199.05) rotate(89.7)"/>
            <path class="cls-7" d="m157.57,349.59c-.14,0-.25-3.29-.25-7.34s.11-7.35.25-7.35.25,3.29.25,7.35-.11,7.34-.25,7.34Z"/>
            <path class="cls-7" d="m159.75,349.59c-.14,0-.25-3.29-.25-7.34s.11-7.35.25-7.35.25,3.29.25,7.35-.11,7.34-.25,7.34Z"/>
            <path class="cls-7" d="m123.57,349.59c-.14,0-.25-3.29-.25-7.34s.11-7.35.25-7.35.25,3.29.25,7.35-.11,7.34-.25,7.34Z"/>
            <path class="cls-7" d="m125.74,349.59c-.14,0-.25-3.29-.25-7.34s.11-7.35.25-7.35.25,3.29.25,7.35-.11,7.34-.25,7.34Z"/>
            <path class="cls-7" d="m130.49,342.48c0-.14,5.22-.25,11.66-.25s11.66.11,11.66.25-5.22.25-11.66.25-11.66-.11-11.66-.25Z"/>
          </g>
          <g>
            <rect class="cls-7" x="150.29" y="298.42" width="9.45" height="63.88" transform="translate(484.56 173.6) rotate(89.7)"/>
            <path class="cls-7" d="m177.84,333.75c-1.67,0-3.02-1.37-3.02-3.06s1.35-3.06,3.02-3.06,3.02,1.37,3.02,3.06-1.35,3.06-3.02,3.06Z"/>
            <rect class="cls-7" x="147.21" y="309.31" width="1.89" height="42.76" transform="translate(478.85 182.53) rotate(90)"/>
          </g>
        </g>
      </g>
      <g>
        <rect class="cls-7" x="640.77" y="64.88" width="9.03" height="44.91" transform="translate(-.46 3.46) rotate(-.31)"/>
        <g>
          <rect class="cls-7" x="562.52" y="65.04" width="23.37" height="24.79" transform="translate(-.41 3.07) rotate(-.31)"/>
          <rect class="cls-7" x="585.78" y="64.92" width="23.37" height="24.79" transform="translate(-.41 3.2) rotate(-.31)"/>
          <path class="cls-7" d="m562.49,71.95c15.53.13,31.1.04,46.63-.21.32,0,.32-.49,0-.5-15.53-.09-31.1,0-46.63.29-.27,0-.27.42,0,.43h0Z"/>
        </g>
        <g>
          <rect class="cls-7" x="547.94" y="89.47" width="42.46" height="20.2" transform="translate(-.53 3.05) rotate(-.31)"/>
          <rect class="cls-7" x="590.2" y="89.24" width="42.46" height="20.2" transform="translate(-.52 3.28) rotate(-.31)"/>
          <path class="cls-7" d="m547.92,95.2c28.21.32,56.52.03,84.73-.42.32,0,.32-.5,0-.5-28.21-.15-56.52-.13-84.72.49-.27,0-.27.42,0,.43h0Z"/>
        </g>
        <g>
          <rect class="cls-7" x="532.04" y="109.79" width="164.52" height="7.24"/>
          <rect class="cls-7" x="558.97" y="113.27" width="6.68" height="24.7"/>
          <rect class="cls-7" x="658.67" y="113.27" width="6.68" height="24.7"/>
        </g>
        <rect class="cls-7" x="649.62" y="48.14" width="9.03" height="61.77" transform="translate(-.41 3.51) rotate(-.31)"/>
        <g>
          <rect class="cls-7" x="658.69" y="59.65" width="14.02" height="50.05" transform="translate(-.45 3.58) rotate(-.31)"/>
          <path class="cls-7" d="m672.49,69.26c0,.13-3.14.24-7.01.24s-7.01-.11-7.01-.24,3.14-.24,7.01-.24,7.01.11,7.01.24Z"/>
          <path class="cls-7" d="m672.49,67.15c0,.13-3.14.24-7.01.24s-7.01-.11-7.01-.24,3.14-.24,7.01-.24,7.01.11,7.01.24Z"/>
          <path class="cls-7" d="m672.49,102.14c0,.13-3.14.24-7.01.24s-7.01-.11-7.01-.24,3.14-.24,7.01-.24,7.01.11,7.01.24Z"/>
          <path class="cls-7" d="m672.49,100.03c0,.13-3.14.24-7.01.24s-7.01-.11-7.01-.24,3.14-.24,7.01-.24,7.01.11,7.01.24Z"/>
          <path class="cls-7" d="m665.7,95.44c-.13,0-.24-5.05-.24-11.28s.11-11.28.24-11.28.24,5.05.24,11.28-.11,11.28-.24,11.28Z"/>
        </g>
        <rect class="cls-7" x="672.64" y="71.9" width="15.26" height="37.78"/>
        <path class="cls-7" d="m656.43,58.66c0,1.43-1.16,2.59-2.59,2.59s-2.59-1.16-2.59-2.59,1.16-2.59,2.59-2.59,2.59,1.16,2.59,2.59Z"/>
        <rect class="cls-7" x="653.03" y="65.79" width="1.6" height="36.74"/>
      </g>
      <path class="cls-10" d="m709.64,465.1c0,.14-149.84.26-334.63.26s-334.66-.12-334.66-.26,149.8-.26,334.66-.26,334.63.12,334.63.26Z"/>
      <g>
        <g>
          <path class="cls-4" d="m608.23,320.08s9.57,3.16,13.66,27c3.88,22.61,12.3,33.85,12.3,33.85l32.28,5.63-15.2,26.86-43.89-15.38-2.3-44.9,3.14-33.05Z"/>
          <path class="cls-4" d="m549.97,319.5s-14.46,1.89-18.52,16.55c-4.06,14.66-8.49,49.15-8.49,49.15l-26.44,44.76,17.55,10.91,26.21-35.49c3.01-4.07,5.08-8.8,5.79-13.81.26-1.83.35-3.74.24-5.77l-.63-10.97,4.28-55.32Z"/>
          <path class="cls-4" d="m546.46,320.27l-5.22,36.23c-.76,5.24-.38,10.58,1.1,15.66l6.44,22.07s-5.52,12.39,1.7,16.73c1.42.85,36.86,1.42,36.86,1.42h15.59l5.66-54.94-.36-37.36s-13.01-4.74-18.11-5.31c-3.2-.36-17.06-.81-28.42.23l-15.24,5.27Z"/>
          <path class="cls-10" d="m532.09,391.81c-.13.09-1.52-2.13-4.08-3.97-1.27-.91-2.53-1.6-3.51-1.94-.96-.39-1.55-.67-1.53-.74s.65.08,1.66.39c1.03.26,2.36.92,3.68,1.86,2.66,1.92,3.9,4.35,3.78,4.39Z"/>
          <path class="cls-10" d="m544.56,339.17s-.13.61-.46,1.68c-.17.53-.37,1.18-.56,1.95-.19.77-.46,1.63-.64,2.61-.46,1.94-.82,4.29-1.1,6.9-.23,2.62-.32,5.52-.2,8.56.26,6.08,1.32,11.51,2.16,15.41.44,1.95.81,3.52,1.08,4.61.26,1.09.39,1.69.36,1.7-.03,0-.23-.58-.56-1.65-.33-1.07-.76-2.63-1.24-4.58-.94-3.89-2.05-9.34-2.32-15.47-.13-3.06-.02-5.98.24-8.63.31-2.64.72-5,1.22-6.94.21-.98.5-1.84.72-2.61.22-.77.45-1.41.65-1.94.39-1.05.62-1.63.65-1.61Z"/>
          <path class="cls-10" d="m608.08,341.26s.07.6.11,1.69c.04,1.09.07,2.67.08,4.61.03,3.9-.04,9.28-.32,15.22-.27,5.94-.7,11.31-1.08,15.19-.19,1.94-.37,3.51-.51,4.59-.14,1.08-.23,1.68-.27,1.67-.04,0-.01-.61.07-1.69.09-1.17.2-2.72.34-4.6.29-3.88.66-9.25.93-15.18.27-5.93.4-11.31.47-15.2.03-1.88.06-3.43.08-4.61.02-1.09.05-1.69.09-1.69Z"/>
          <g class="cls-5">
            <path d="m593.91,384.32c.73,1.21-.41,3.49-3.28,5.91-1.42,1.21-3.28,2.41-5.48,3.49-2.2,1.06-4.74,1.98-7.49,2.62-2.75.62-5.44.88-7.88.88-2.45-.03-4.64-.3-6.45-.78-3.63-.94-5.65-2.51-5.51-3.91.14-1.45,2.31-2.51,5.49-3.45,3.2-.94,7.42-1.85,12.05-2.89,4.63-1.06,8.82-2.07,12.11-2.6,3.28-.52,5.69-.51,6.44.74Z"/>
          </g>
          <path class="cls-10" d="m595.37,385.73s-.37.46-1.11,1.24c-.36.4-.83.86-1.42,1.35-.58.49-1.21,1.1-2.01,1.64-.39.28-.8.58-1.22.89-.43.31-.91.57-1.39.87-.95.63-2.04,1.15-3.17,1.73-2.31,1.07-4.96,2.04-7.83,2.69-2.88.61-5.69.84-8.24.84-1.27-.05-2.49-.07-3.61-.25-.56-.07-1.11-.11-1.62-.21-.51-.1-1.01-.2-1.48-.3-.95-.16-1.78-.44-2.51-.65-.74-.19-1.36-.43-1.85-.63-1-.39-1.54-.63-1.53-.66.04-.12,2.23.85,5.97,1.58.47.08.96.17,1.47.26.51.09,1.05.12,1.61.18,1.11.15,2.31.15,3.57.2,2.52-.02,5.28-.26,8.12-.87,2.83-.64,5.45-1.58,7.74-2.61,1.12-.56,2.21-1.07,3.16-1.67.48-.29.96-.54,1.39-.84.42-.3.83-.58,1.23-.85,3.1-2.23,4.67-4.03,4.76-3.94Z"/>
          <path class="cls-10" d="m610.2,321.23c.13.1-1.36,2.05-2.4,4.85-1.07,2.79-1.24,5.24-1.4,5.22-.13.01-.18-2.53.92-5.41,1.08-2.89,2.8-4.76,2.88-4.66Z"/>
          <g class="cls-2">
            <path class="cls-1" d="m613.69,357.68c-2.09.76-1.22.51-2.13,2.27-.9,1.77-1.18,3.97-.23,5.71.82,1.5,2.41,2.43,4.02,3,1.93.68,4.25.9,5.88-.33,1.66-1.25,2.07-3.67,1.48-5.66-.56-1.89-1.92-3.54-3.67-4.44-1.75-.91-3.88-1.07-5.75-.44"/>
            <path class="cls-1" d="m588.02,378.8c-.74-1.36-4.15-2.15-5.4-1.24-.91,1.26-.93,3.11.02,4.34.95,1.23,2.82,1.66,4.17.91,1.35-.75,1.95-2.65,1.21-4.01Z"/>
            <path class="cls-1" d="m541.02,382.4c-.74-1.36-4.15-2.15-5.4-1.24-.91,1.26-.93,3.11.02,4.34.95,1.23,2.82,1.66,4.17.91,1.35-.75,1.95-2.65,1.21-4.01Z"/>
            <path class="cls-1" d="m553.45,323.24c-3.86.51-7.39,3.02-9.14,6.5-.56,1.1-.95,2.33-.85,3.56.1,1.23.76,2.46,1.87,3.01,1.64.81,3.59-.05,5.17-.97,1.38-.81,2.74-1.68,3.85-2.83,1.11-1.15,1.96-2.61,2.13-4.2.17-1.59-.41-3.3-1.7-4.25-1.28-.95-3.27-.95-4.39.18"/>
            <path class="cls-1" d="m525.79,399.21c-3.86.51-7.39,3.02-9.14,6.5-.56,1.1-.95,2.33-.85,3.56.1,1.23.76,2.46,1.87,3.01,1.64.81,3.59-.05,5.17-.97,1.38-.81,2.74-1.68,3.85-2.83,1.11-1.15,1.96-2.61,2.13-4.2.17-1.59-.41-3.3-1.7-4.25-1.28-.95-3.27-.95-4.39.18"/>
            <path class="cls-1" d="m595.28,323.73c-2.09.76-1.22.51-2.13,2.27-.9,1.77-1.18,3.97-.23,5.71.82,1.5,2.41,2.43,4.02,3,1.93.68,4.25.9,5.88-.33,1.66-1.25,2.07-3.67,1.48-5.66-.56-1.89-1.92-3.54-3.67-4.44-1.75-.91-3.88-1.07-5.75-.44"/>
            <path class="cls-1" d="m586.91,349.49c.16,1.55.14.92,1.19,1.84s2.5,1.48,3.85,1.13c1.16-.3,2.07-1.22,2.73-2.23.8-1.2,1.34-2.74.78-4.06-.57-1.34-2.15-2.04-3.6-1.98-1.38.06-2.74.7-3.66,1.74-.92,1.04-1.39,2.46-1.28,3.84"/>
            <path class="cls-1" d="m528.48,365.64c.16,1.55.14.92,1.19,1.84,1.05.92,2.5,1.48,3.85,1.13,1.16-.3,2.07-1.22,2.73-2.23.8-1.2,1.34-2.74.78-4.06-.57-1.34-2.15-2.04-3.6-1.98-1.39.06-2.74.7-3.66,1.74-.92,1.04-1.39,2.46-1.28,3.84"/>
            <path class="cls-1" d="m572.92,346.18c-.3-.61-1.05-.9-1.74-.85s-1.32.35-1.93.65l-.74,1.42c.65,1.3,2.56,1.76,3.73.89.64-.48,1.03-1.39.67-2.1Z"/>
            <path class="cls-1" d="m540.05,345.55c-.3-.61-1.05-.9-1.74-.85-.68.04-1.32.35-1.93.65l-.74,1.42c.65,1.3,2.56,1.76,3.73.89.64-.48,1.03-1.39.67-2.1Z"/>
            <path class="cls-1" d="m603.66,372.74c-.3-.61-1.05-.9-1.74-.85-.68.04-1.32.35-1.93.65l-.74,1.42c.65,1.3,2.56,1.76,3.73.89.64-.48,1.03-1.39.67-2.1Z"/>
            <path class="cls-1" d="m554.71,403.46c-.3-.61-1.05-.9-1.74-.85-.68.04-1.32.35-1.93.65l-.74,1.42c.65,1.3,2.56,1.76,3.73.89.64-.48,1.03-1.39.67-2.1Z"/>
            <path class="cls-1" d="m580.07,361.59c-1.54-1.96-3.98-3-6.41-3.5-2.92.1-5.03,2-7.04,4.12-.9.94-1.66,2.16-1.57,3.46.1,1.43,1.21,2.59,2.4,3.39,2.78,1.86,6.39,2.42,9.6,1.5,1.29-.37,2.55-1,3.38-2.05,1.55-1.95,1.18-4.95-.36-6.91Z"/>
            <path class="cls-1" d="m595.5,360.58c-.56-1.03-3.13-1.63-4.08-.93-.69.95-.7,2.35.01,3.28s2.13,1.26,3.15.69c1.02-.57,1.48-2,.91-3.03Z"/>
            <path class="cls-1" d="m577.82,404.65c-.56-1.03-3.13-1.63-4.08-.93-.69.95-.7,2.35.01,3.28s2.13,1.26,3.15.69,1.48-2,.91-3.03Z"/>
            <path class="cls-1" d="m617.9,341.12c-.56-1.03-3.13-1.63-4.08-.93-.69.95-.7,2.35.01,3.28s2.13,1.26,3.15.69c1.02-.57,1.48-2,.91-3.03Z"/>
            <path class="cls-1" d="m557.83,377.68c-.72-.63-1.73-.91-2.68-.82l.03-.02c-1.86-.01-3.4.73-3.56,2.48-.16,1.74.55,3.55,1.86,4.71,1.01.89,2.49,1.4,3.72.85.97-.43,1.59-1.43,1.86-2.46.45-1.66.06-3.61-1.24-4.75Z"/>
            <path class="cls-1" d="m601.85,395.87c-.4-1.3-1.21-2.56-2.46-3.08-1.27-.54-2.8-.21-3.93.59-1.13.8-1.91,2-2.49,3.26-.67,1.45-1.1,3.03-1,4.63.1,1.59,2.48,3.4,4.33,2.87h-.02c1.33.09,2.72-.29,3.74-1.14,1.99-1.66,2.6-4.63,1.83-7.11Z"/>
            <path class="cls-1" d="m550.87,347.56c-2.09.76-1.22.51-2.13,2.27-.9,1.77-1.18,3.97-.23,5.71.82,1.5,2.41,2.43,4.02,3,1.93.68,4.25.9,5.88-.33,1.66-1.25,2.07-3.67,1.48-5.66-.56-1.89-1.92-3.54-3.67-4.44-1.75-.91-3.88-1.07-5.75-.44"/>
          </g>
        </g>
        <g>
          <path class="cls-4" d="m585.95,444.54s38.29,10.6,39.83,11.14c2.31.81,1.92,9.26-1.67,9.13-1.7-.06-29.41,1.03-32.91.81-3.5-.22-14.07-4.38-14.07-4.38l8.82-16.7Z"/>
          <path class="cls-10" d="m601.9,459.15c.19.03.45-2,1.69-4.11,1.21-2.13,2.83-3.37,2.71-3.52-.07-.15-1.97.93-3.26,3.2-1.32,2.26-1.29,4.45-1.13,4.43Z"/>
          <path class="cls-10" d="m597.91,457.34c.19.03.58-1.78,1.59-3.78,1-2.01,2.22-3.4,2.09-3.53-.11-.13-1.6,1.13-2.66,3.24-1.07,2.11-1.19,4.06-1.02,4.07Z"/>
          <path class="cls-10" d="m594.16,456.33c.19-.01.05-1.92.9-4.05.81-2.14,2.22-3.44,2.09-3.58-.08-.15-1.79,1.04-2.68,3.35-.91,2.3-.45,4.33-.3,4.28Z"/>
          <path class="cls-10" d="m594.84,451.39c.07.02.41-1.05.41-2.85,0-.89-.11-1.97-.39-3.12-.14-.58-.33-1.18-.57-1.78-.12-.3-.27-.65-.61-.94-.36-.32-1.01-.25-1.31.06-.35.31-.46.74-.51,1.08-.04.35-.06.68-.05,1.01,0,.66.09,1.29.24,1.87.28,1.17.74,2.15,1.18,2.93.89,1.55,1.67,2.35,1.72,2.31.09-.06-.55-.95-1.32-2.51-.38-.78-.77-1.74-1-2.85-.12-.55-.18-1.14-.18-1.75.02-.59,0-1.32.35-1.61.18-.15.35-.16.51-.04.17.13.31.39.42.67.24.57.43,1.14.58,1.69.3,1.1.45,2.13.51,2.99.11,1.73-.06,2.82.04,2.83Z"/>
          <path class="cls-10" d="m594.8,451c.02-.07-.91-.39-2.47-.4-.78,0-1.71.08-2.72.33-.5.13-1.03.26-1.56.58-.52.27-1.07.99-.87,1.75.16.71.77,1.21,1.38,1.37.61.17,1.2.11,1.72,0,1.05-.24,1.87-.76,2.49-1.22,1.23-.96,1.83-1.7,1.78-1.75-.07-.08-.79.55-2.04,1.38-.63.4-1.41.83-2.35,1.02-.47.09-.97.12-1.42-.02-.45-.12-.83-.47-.93-.91-.11-.43.15-.82.57-1.07.41-.25.92-.4,1.39-.54.95-.27,1.83-.4,2.58-.45,1.5-.1,2.44.05,2.45-.05Z"/>
          <path class="cls-10" d="m607.78,459.56c.19-.02,0-1.66.75-3.45.72-1.81,2-2.85,1.87-3-.06-.16-1.66.75-2.47,2.76-.83,1.99-.32,3.76-.16,3.7Z"/>
          <path class="cls-10" d="m581.07,461.32s.51.29,1.48.7c.98.37,2.42.89,4.26,1.32,3.66.92,8.88,1.45,14.62,1.39,5.74-.06,10.91-.32,14.66-.47,1.77-.09,3.26-.17,4.44-.24,1.05-.07,1.63-.13,1.62-.17,0-.04-.58-.07-1.63-.08-1.18,0-2.67.02-4.44.03-3.88.08-8.99.18-14.65.29-5.71.06-10.87-.39-14.52-1.19-3.66-.75-5.8-1.69-5.84-1.58Z"/>
          <path class="cls-10" d="m579.93,462.2c.05.09,1.1-.52,2.87-1.3,1.75-.75,4.37-1.65,7.25-1.2,2.89.44,4.93,2.38,6.26,3.73,1.34,1.39,2.13,2.32,2.21,2.25.06-.05-.6-1.06-1.87-2.56-.65-.74-1.47-1.6-2.54-2.37-1.06-.78-2.43-1.44-3.96-1.68-3.09-.47-5.81.56-7.54,1.43-1.76.9-2.72,1.65-2.68,1.71Z"/>
          <g class="cls-5">
            <path d="m585.95,444.54s38.29,10.6,39.83,11.14c2.31.81,1.92,9.26-1.67,9.13-1.7-.06-29.41,1.03-32.91.81-3.5-.22-14.07-4.38-14.07-4.38l8.82-16.7Z"/>
          </g>
        </g>
        <g>
          <path class="cls-10" d="m551.96,411.22l-12.47,14.5s-41.5-12.62-51.96-12.04c-10.46.58-19.02,4.77-21.06,13.26-2.03,8.49-2.31,20.21,9.89,28.34,12.2,8.13,72.83,12.63,72.83,12.63h23.99l39.21-51.7-3.44-2.84-57-2.15Z"/>
          <path class="cls-3" d="m560.31,444.76s-.27.01-.79-.01c-.51-.04-1.28-.04-2.25-.18-1.95-.19-4.76-.7-8.13-1.68-3.38-.97-7.28-2.51-11.47-4.49-4.2-1.98-8.67-4.41-13.37-6.94-4.7-2.52-9.26-4.78-13.55-6.5-4.29-1.71-8.29-2.9-11.72-3.5-3.43-.62-6.27-.77-8.22-.72-.98-.02-1.73.08-2.25.09-.51.02-.79.03-.79.01,0-.02.27-.06.78-.11.51-.04,1.27-.18,2.25-.19,1.96-.12,4.82-.02,8.29.56,3.47.56,7.51,1.72,11.83,3.42,4.32,1.7,8.9,3.96,13.62,6.49,4.71,2.53,9.17,4.97,13.33,6.97,4.16,2,8.03,3.56,11.37,4.57,3.34,1.02,6.12,1.58,8.05,1.83.96.17,1.72.2,2.23.27.51.06.78.1.78.12Z"/>
          <path class="cls-10" d="m588.66,463.69c7.71-3.03,50.1-16.52,65.1-33.86,12.49-14.44-7.38-27.36-7.38-27.36,0,0-13.94-.45-18.59,0-4.65.45-71.17,45.4-71.17,45.4,0,0,11.62,22.66,11.33,23.53l20.7-7.71Z"/>
          <path class="cls-3" d="m609.54,413.41s-.06.06-.18.14c-.15.1-.34.23-.56.38-.53.35-1.26.82-2.18,1.42-1.94,1.24-4.68,2.98-8.05,5.13-6.86,4.31-16.27,10.23-26.67,16.76-5.13,3.2-10.03,6.25-14.49,9.03l.09-.3c3.09,7.42,5.72,13.75,7.6,18.28.9,2.21,1.62,3.98,2.14,5.25.23.58.41,1.05.55,1.4.12.32.18.49.16.49-.01,0-.09-.15-.24-.46-.16-.35-.36-.8-.62-1.37-.54-1.25-1.31-3-2.26-5.19-1.92-4.51-4.61-10.81-7.77-18.2l-.08-.19.17-.11c4.45-2.79,9.34-5.85,14.47-9.07,10.43-6.48,19.87-12.35,26.75-16.63,3.41-2.09,6.18-3.79,8.14-4.99.94-.56,1.68-1.01,2.23-1.33.23-.13.43-.24.59-.34.13-.07.2-.11.21-.1Z"/>
          <path class="cls-3" d="m550.97,433.41c-.03.06-.79-.19-1.97-.74-1.18-.55-2.75-1.44-4.35-2.61-1.6-1.18-2.92-2.41-3.8-3.36-.88-.95-1.35-1.61-1.3-1.65.12-.11,2.24,2.29,5.41,4.6,3.15,2.32,6.08,3.62,6.02,3.77Z"/>
          <path class="cls-3" d="m569.09,411.98c.08,0,.08,1.02.1,2.65.02,1.64.09,3.89.31,6.37.23,2.48.57,4.71.84,6.33.27,1.61.45,2.61.38,2.63-.06.02-.37-.95-.74-2.56-.36-1.6-.77-3.85-.99-6.35-.23-2.5-.23-4.78-.16-6.42.07-1.64.2-2.65.27-2.65Z"/>
          <path class="cls-3" d="m574.96,414.23s.2-.05.52.07c.32.11.76.4,1.1.93.33.51.58,1.3.31,2.14-.25.86-1.18,1.48-2.15,1.51-.97.06-1.97-.47-2.27-1.32-.31-.84-.05-1.64.3-2.14.36-.52.82-.79,1.16-.86.34-.08.53-.02.53,0,.04.09-.81.08-1.38,1.06-.26.46-.43,1.14-.16,1.76.25.63,1.01,1.03,1.8.99.8-.04,1.51-.51,1.72-1.15.24-.64.07-1.32-.18-1.79-.54-.98-1.35-1.1-1.31-1.19Z"/>
          <path class="cls-3" d="m558.51,412.39s.18.26.36.79c.19.53.35,1.34.35,2.35,0,1.01-.22,2.22-.77,3.44-.55,1.22-1.48,2.44-2.77,3.33-1.31.86-2.79,1.26-4.12,1.31-1.34.05-2.55-.2-3.48-.58-.94-.38-1.62-.84-2.04-1.21-.42-.37-.61-.61-.59-.63.07-.09.92.86,2.76,1.5.91.32,2.06.52,3.33.45,1.26-.07,2.64-.46,3.86-1.26,1.2-.82,2.08-1.95,2.62-3.1.55-1.15.79-2.29.84-3.25.1-1.94-.45-3.09-.35-3.12Z"/>
          <path class="cls-3" d="m598.06,420.28c0,.06-.63.1-1.57-.22-.93-.31-2.18-1.07-3.02-2.37-.85-1.3-1.04-2.74-.95-3.72.08-.99.38-1.55.43-1.53.08.02-.08.6-.06,1.54,0,.93.25,2.24,1.02,3.43.77,1.18,1.88,1.93,2.73,2.31.85.39,1.45.48,1.44.56Z"/>
        </g>
        <g>
          <path class="cls-8" d="m642.13,391.49s6.48-9.35,7.9-10.15c1.42-.79,13.41-3.22,14.33-2.77.92.45,14.33,4.9,12.5,6.29-1.83,1.39-11.15-1.84-11.15-1.84l-1.39.45s8.09,2.58,9.68,3.85c1.47,1.17.62,3.06-.88,2.67-1.49-.39-8.48-2.88-8.96-2.65-.47.23,7.54,3.13,8.35,3.8,1.09.89.89,3.04-.61,2.7-.88-.2-8.37-3.39-8.37-3.39,0,0,5.82,3.32,6.3,3.95.8,1.03-.15,2.26-1.44,1.76-.89-.34-4.94-3.09-6.13-3.54,0,0-1.2.13-2.59,2.3-1.4,2.17-9.8,6.92-9.8,6.92l-7.74-10.35Z"/>
          <g>
            <path class="cls-8" d="m645.25,392.11c.72.91,2.13.92,3.2.48,1.07-.44,1.96-1.23,3-1.75,3.1-1.55,7.06-.47,10.08-2.16.42-.24.87-.66.73-1.12-.13-.43-.66-.56-1.11-.61-3.79-.48-7.58-.97-11.37-1.45"/>
            <path class="cls-11" d="m649.77,385.5s.45-.03,1.25.03c.8.06,1.95.17,3.37.32,1.48.17,3.15.36,4.98.56.47.06.95.11,1.44.17.45.09,1.08,0,1.61.6.25.31.22.8.02,1.08-.18.3-.42.49-.68.65-.5.28-1.01.5-1.56.66-2.19.63-4.3.49-6.13.79-.91.13-1.76.35-2.49.7-.73.35-1.36.81-1.99,1.17-1.23.8-2.57.94-3.36.64-.81-.29-1.02-.79-.99-.78.04-.05.31.36,1.06.54.75.19,1.89.01,3.05-.79.59-.37,1.21-.86,1.99-1.27.78-.4,1.68-.66,2.63-.81,1.89-.33,4.01-.22,6.03-.82.5-.14.98-.36,1.41-.59.41-.24.65-.61.48-.8-.16-.23-.68-.3-1.17-.36-.49-.07-.97-.13-1.44-.19-1.82-.26-3.49-.5-4.97-.7-1.41-.21-2.55-.39-3.34-.53-.79-.14-1.22-.24-1.21-.28Z"/>
          </g>
          <path class="cls-11" d="m676.82,384.89c.01.08-.98.32-2.61.31-.82,0-1.79-.09-2.85-.31-1.03-.28-2.16-.61-3.34-.96-.87-.27-1.71-.52-2.51-.77h.16c-3.58.7-6.18,1.11-6.22.97-.03-.14,2.53-.8,6.09-1.57l.07-.02.09.02c.79.23,1.63.48,2.49.73,1.15.35,2.25.69,3.3,1.01,1.02.24,1.95.37,2.74.44,1.58.13,2.58.05,2.59.15Z"/>
        </g>
        <g>
          <path class="cls-10" d="m618.02,288.22c-2.67-3.2-5.93-6.48-6.05-10.64-.06-2.21.75-4.7-.58-6.47-1.15-1.54-3.45-1.79-4.75-3.21-1.73-1.9-.98-4.91-1.58-7.41-.65-2.72-2.98-4.82-5.61-5.79-2.63-.97-5.51-.95-8.29-.63l-2.61,57.36c1.27-1.39,4.58-1.98,6.35-1.31,1.76.67,3.42,1.76,5.3,1.91,4.22.35,7.19-3.87,10.8-6.09,3.44-2.12,8.17-2.79,10.07-6.36,1.95-3.68-.37-8.16-3.04-11.36Z"/>
          <path class="cls-3" d="m610.13,306.37c-.02-.06.59-.03,1.41-.58.4-.27.84-.71,1.11-1.33.27-.62.33-1.44.03-2.24-.27-.83-1.02-1.42-1.91-1.99-.43-.3-.91-.63-1.28-1.12-.37-.49-.57-1.13-.54-1.77.07-1.29.74-2.41,1.16-3.6.22-.59.39-1.21.38-1.82,0-.62-.2-1.23-.55-1.78-.71-1.09-1.81-1.87-2.84-2.63-1.04-.74-2.08-1.51-2.87-2.44-1.61-1.83-2.42-3.93-2.75-5.71-.35-1.79-.2-3.29-.01-4.28.1-.5.2-.88.3-1.12.09-.25.14-.38.16-.37.06.02-.13.54-.25,1.53-.13.98-.21,2.44.17,4.17.36,1.72,1.19,3.73,2.75,5.47.76.88,1.75,1.6,2.81,2.34,1.04.76,2.19,1.54,2.99,2.77.39.61.63,1.33.62,2.05,0,.72-.19,1.39-.42,2.01-.46,1.23-1.09,2.33-1.16,3.44-.03.55.12,1.07.43,1.48.3.42.73.73,1.16,1.04.43.3.86.6,1.23.96.37.37.63.81.78,1.26.31.9.21,1.81-.12,2.48-.32.68-.82,1.12-1.27,1.38-.45.26-.84.37-1.11.4-.27.04-.41.02-.41,0Z"/>
          <g>
            <g>
              <path class="cls-8" d="m589.21,319.12l-.18-9.62s9.56-1.41,11.76-13.82c1.09-6.17.96-16.32.59-24.62-.34-7.47-8.25-15.07-15.7-14.41l-24.2,4.16v4.02s.68,54.71.68,54.71c.09,7.41,6.12,13.36,13.53,13.36h0c7.57,0,13.67-6.21,13.53-13.78Z"/>
              <g>
                <path class="cls-10" d="m597.54,279.68c.01.84-.69,1.55-1.57,1.58-.88.03-1.6-.62-1.62-1.47-.01-.84.69-1.55,1.56-1.58.88-.03,1.61.63,1.62,1.47Z"/>
                <path class="cls-10" d="m599.09,276.29c-.2.2-1.39-.71-3.11-.74-1.71-.05-2.99.81-3.17.6-.09-.09.12-.47.67-.86.55-.39,1.47-.76,2.54-.74,1.07.02,1.96.43,2.47.85.52.41.69.79.59.89Z"/>
              </g>
              <g>
                <path class="cls-10" d="m581.78,279.23c.01.84-.69,1.55-1.57,1.58-.88.03-1.6-.62-1.62-1.47-.01-.84.69-1.55,1.57-1.58.88-.03,1.61.63,1.62,1.47Z"/>
                <path class="cls-10" d="m582.21,276.31c-.2.2-1.4-.71-3.11-.74-1.71-.05-2.99.81-3.17.6-.09-.09.12-.47.67-.86.55-.39,1.47-.76,2.54-.74,1.07.02,1.96.43,2.47.85.52.41.69.79.59.89Z"/>
              </g>
              <path class="cls-10" d="m588.21,289.16c0-.1,1.06-.26,2.8-.45.44-.04.86-.12.93-.42.11-.31-.07-.79-.27-1.3-.39-1.07-.8-2.19-1.24-3.36-1.72-4.78-2.95-8.72-2.76-8.78.19-.07,1.74,3.76,3.46,8.54.41,1.18.81,2.3,1.18,3.38.16.5.43,1.07.2,1.72-.12.33-.45.56-.73.63-.28.08-.53.08-.75.09-1.74.06-2.82.05-2.83-.05Z"/>
              <path class="cls-11" d="m589.04,309.49s-8.38.39-16.58-4.74c0,0,4.17,8.69,16.64,7.75l-.06-3.01Z"/>
              <path class="cls-11" d="m587.41,293.28c-.6-.83-1.68-1.29-2.75-1.2-.75.07-1.51.41-1.97,1.01-.46.6-.57,1.46-.17,2.04.45.66,1.42.83,2.24.61.82-.22,1.54-.75,2.22-1.27.19-.15.38-.3.5-.5.12-.2.15-.47,0-.64"/>
              <path class="cls-10" d="m583.14,290.26c.28-.01.25,1.85,1.82,3.2,1.57,1.36,3.56,1.18,3.57,1.44.02.12-.45.35-1.29.36-.82.01-2.02-.27-2.98-1.1-.96-.83-1.36-1.92-1.41-2.68-.06-.78.16-1.24.29-1.22Z"/>
            </g>
            <path class="cls-10" d="m582.77,269.59c-.18.46-1.89.21-3.91.42-2.02.17-3.66.73-3.92.3-.12-.2.18-.64.84-1.08.66-.44,1.71-.85,2.92-.96,1.21-.11,2.32.1,3.04.41.73.31,1.1.68,1.02.9Z"/>
            <path class="cls-10" d="m598.54,271.31c-.31.38-1.48-.04-2.91-.09-1.42-.09-2.63.22-2.9-.2-.12-.2.08-.59.61-.95.52-.36,1.4-.64,2.37-.6.98.05,1.82.42,2.3.82.5.41.65.81.52,1Z"/>
          </g>
          <path class="cls-3" d="m567.83,275.46c4.09-5.02,15.73-14.03,21.4-16.52.91-.4,1.75-1.24,2.31-1.24,0,0,1.77.88,3.34,2.25,3.02,2.64,5.42,8.86,6.58,12.7,1.68-4.78,1.13-11.65-2.19-15.48-3.32-3.83-6.86-5.94-11.92-6.19-5.06-.25-8.87.88-13.19,3.54-1.71,1.05-7.88,6.18-9.6,9.13l3.27,11.81Z"/>
          <path class="cls-10" d="m589.61,251.24c.84.09-4.81-4.54-8.33-5.17-3.52-.63-7.27.15-10.24,2.14-2.01,1.35-3.69,3.23-5.92,4.17-1.7.72-3.59.84-5.35,1.37-4.68,1.39-8.27,5.85-8.63,10.72-.15,2.06.22,4.13.25,6.2.03,2.07-.35,4.28-1.75,5.8-1.21,1.32-3,1.93-4.52,2.88-3.61,2.27-5.65,6.8-4.96,11.01.37,2.26,1.44,4.59.66,6.74-.52,1.42-1.75,2.44-2.58,3.7-1.66,2.51-1.54,6.06.27,8.46,2.11.23,3.77,1.81,5.4,3.16,1.64,1.35,3.73,2.59,5.77,1.99,2.64-.78,3.89-4.3,6.61-4.69,2.66-.38,4.61,2.45,7.13,3.4,2.87,1.09,6.23-.55,7.97-3.08,1.73-2.53,2.16-5.73,2.22-8.8.08-3.86-.42-7.94-2.7-11.05-1.64-2.23-4.24-4.14-4.28-6.91-.04-2.65,2.38-4.75,2.79-7.37.36-2.3-.88-4.5-1.84-6.62-.96-2.12-2.72-5.26-1.38-7.16,0,0,9.17-12.47,23.4-10.89Z"/>
          <path class="cls-10" d="m590.73,253.32s.44.2.77.85c.33.63.54,1.72.07,2.78-.48,1.05-1.44,1.62-2.13,1.78-.71.18-1.16.04-1.15-.02,0-.08.43-.09,1.03-.33.59-.23,1.37-.77,1.77-1.64.39-.88.29-1.82.07-2.42-.21-.61-.49-.94-.43-.99Z"/>
          <path class="cls-10" d="m594.21,258.63c-.04.13-.86-.02-1.66-.65-.8-.62-1.14-1.39-1.02-1.46.13-.08.62.49,1.34,1.05.71.57,1.38.91,1.33,1.06Z"/>
          <path class="cls-10" d="m585.99,255.37c.03-.15.76-.12,1.6-.36.84-.22,1.47-.6,1.56-.49.1.1-.46.73-1.43.99-.97.26-1.77-.02-1.73-.15Z"/>
          <path class="cls-10" d="m586.09,253.09c.02-.14.75-.15,1.62-.02.87.13,1.56.36,1.54.5-.02.14-.74.15-1.62.02-.87-.13-1.56-.36-1.54-.5Z"/>
          <path class="cls-10" d="m594.5,253.86c.01.14-.28.28-.65.31-.37.03-.68-.07-.69-.21-.01-.14.28-.28.65-.31s.68.07.69.21Z"/>
          <path class="cls-10" d="m594.59,255.28c0,.14-.43.26-.96.26s-.96-.12-.96-.26.43-.26.96-.26.96.12.96.26Z"/>
          <path class="cls-10" d="m572.68,263.65c.11.11-1.2,1.45-2.51,3.32-1.32,1.86-2.15,3.54-2.29,3.47-.13-.05.51-1.86,1.87-3.77,1.35-1.92,2.85-3.12,2.93-3.02Z"/>
          <path class="cls-10" d="m573.14,259.95c.12.1-1.4,1.98-2.95,4.5-1.56,2.52-2.56,4.71-2.7,4.66-.13-.05.67-2.37,2.26-4.93,1.58-2.57,3.3-4.32,3.39-4.23Z"/>
          <path class="cls-10" d="m539.59,277.68s-.12-.09-.3-.31c-.16-.23-.41-.59-.57-1.11-.35-1.01-.45-2.78.69-4.44,1.11-1.68,3.7-2.67,6.25-1.95,1.3.32,2.39,1.23,3.5,1.97.56.37,1.16.71,1.79.86.63.13,1.32.03,1.83-.38.52-.4.86-1.02,1.04-1.66.17-.64.17-1.32.1-1.99-.16-1.33-.48-2.65-.51-3.94-.14-2.56.5-4.95,1.76-6.47,1.25-1.54,2.82-2.18,3.88-2.32.54-.08.97-.04,1.25,0,.28.06.42.09.42.11,0,.06-.6-.11-1.63.09-1.02.19-2.48.86-3.63,2.35-1.15,1.47-1.74,3.75-1.57,6.22.05,1.25.36,2.51.54,3.91.18,1.36-.03,3.08-1.33,4.11-.64.51-1.51.64-2.26.48-.75-.18-1.39-.55-1.96-.94-1.16-.78-2.16-1.63-3.35-1.93-2.35-.69-4.77.2-5.82,1.71-1.09,1.52-1.07,3.19-.8,4.17.28,1.02.73,1.45.68,1.48Z"/>
          <path class="cls-10" d="m616.04,278.61s-.15-.04-.42-.03c-.27.01-.67.17-.98.58-.31.39-.49,1.11,0,1.66.44.54,1.38.82,2.2.47.82-.36,1.43-1.31,1.55-2.37.13-1.08-.21-2.26-.64-3.44-.44-1.15-1.06-2.4-2.17-3.1-.55-.34-1.21-.46-1.89-.4-.68.06-1.37.27-2.09.47-.72.19-1.47.37-2.25.3-.78-.07-1.53-.47-2-1.06-.96-1.19-1.09-2.72-.94-4,.14-1.3.44-2.48.46-3.59,0-1.1-.22-2.13-.6-3-.75-1.75-1.94-2.84-2.8-3.45-.89-.6-1.47-.79-1.45-.84,0-.02.15.02.42.12.27.1.66.27,1.13.55.92.57,2.2,1.65,3.03,3.47.42.9.69,1.98.7,3.15,0,1.18-.29,2.38-.41,3.63-.13,1.23.03,2.61.85,3.62.4.5,1,.81,1.66.87.66.06,1.36-.1,2.06-.29.71-.19,1.42-.41,2.18-.48.75-.07,1.56.08,2.2.48,1.28.83,1.9,2.17,2.36,3.37.43,1.21.77,2.45.62,3.66-.15,1.19-.84,2.25-1.83,2.66-1,.39-2.06.03-2.57-.63-.26-.33-.37-.74-.32-1.1.04-.36.21-.65.39-.87.37-.45.85-.58,1.14-.56.3.02.42.13.42.13Z"/>
          <path class="cls-10" d="m534.31,294.97s.14.07.39.07c.25,0,.64-.16.89-.58.12-.2.21-.47.14-.74-.06-.27-.26-.53-.55-.7-.58-.35-1.48-.31-2.09.32-.61.6-.98,1.59-1,2.61,0,.51.1,1.04.39,1.48.28.44.74.77,1.28.92,1.09.31,2.4-.04,3.19-1.02.82-.95,1.2-2.3,1.23-3.65.03-1.37-.23-2.72-.38-4.05-.16-1.32-.22-2.66.09-3.89.3-1.24,1-2.28,1.78-3.07.79-.79,1.66-1.36,2.5-1.78,1.69-.82,3.18-1.13,4.18-1.35,1.01-.21,1.58-.29,1.59-.25,0,.04-.54.19-1.54.45-.99.28-2.45.64-4.06,1.48-.8.42-1.63.99-2.36,1.75-.73.76-1.35,1.73-1.62,2.88-.28,1.15-.22,2.42-.05,3.72.16,1.31.43,2.68.4,4.12-.02,1.44-.43,2.9-1.36,3.98-.46.53-1.06.95-1.72,1.14-.66.19-1.35.2-1.99,0-.63-.18-1.2-.59-1.54-1.13-.34-.54-.44-1.16-.43-1.73.05-1.14.45-2.18,1.18-2.87.72-.72,1.84-.75,2.49-.31.34.21.57.55.64.89.07.36-.06.67-.21.9-.32.46-.78.61-1.07.57-.29-.04-.39-.17-.39-.17Z"/>
          <path class="cls-10" d="m568.97,247.53s-.06-.14-.16-.39c-.11-.25-.37-.58-.84-.79-.46-.21-1.13-.29-1.82-.11-.7.18-1.42.74-1.54,1.64-.32,1.78,1.74,4.02,4.18,3.58,1.2-.16,2.38-.78,3.4-1.64,1.03-.86,1.89-1.99,2.78-3.15s1.78-2.31,2.88-3.21c1.08-.9,2.36-1.56,3.69-1.69,1.33-.14,2.59.29,3.56.93.97.64,1.7,1.47,2.22,2.3,1.02,1.68,1.32,3.26,1.51,4.31.09.53.13.95.16,1.23.02.28.02.43,0,.43-.04,0-.13-.58-.36-1.62-.25-1.03-.6-2.56-1.62-4.15-.51-.78-1.22-1.55-2.14-2.13-.91-.58-2.07-.96-3.27-.81-1.2.13-2.39.75-3.41,1.61-1.04.86-1.91,1.98-2.79,3.14-.89,1.16-1.77,2.31-2.86,3.22-1.08.9-2.35,1.57-3.67,1.73-1.32.19-2.66-.28-3.49-1.13-.85-.82-1.31-1.97-1.11-2.99.08-.5.34-.97.69-1.28.35-.31.75-.5,1.14-.59.78-.18,1.49-.06,1.99.21.5.27.76.66.84.94.08.28.08.43.07.43Z"/>
          <path class="cls-3" d="m584.3,250.95s-.04-.07-.09-.2c-.04-.13-.1-.33-.26-.55-.28-.45-.9-.99-1.86-1.35-.96-.35-2.22-.57-3.68-.52-.73.03-1.51.11-2.29.35-.77.24-1.51.73-2.23,1.29-1.43,1.14-2.83,2.65-3.95,4.48-.26.47-.53.94-.72,1.46-.18.53-.5,1.1-.92,1.54-.83.89-1.94,1.52-3.15,1.89-.59.2-1.27.27-1.85.38-.6.12-1.18.33-1.74.59-1.12.53-2.15,1.35-2.88,2.42-.74,1.06-1.08,2.36-1.05,3.71,0,1.35.26,2.72.49,4.12.22,1.4.43,2.84.19,4.26-.19,1.43-.98,2.73-2,3.65-2.06,1.86-4.64,2.62-6.45,4.21-.91.77-1.68,1.7-2.02,2.76-.36,1.06-.19,2.17.27,3.13.44.97,1.05,1.84,1.48,2.79.42.94.68,1.98.44,2.95-.24.99-.97,1.67-1.64,2.16-.68.5-1.35.91-1.87,1.41-1.08.99-1.22,2.36-1.14,3.36.09,1.02.31,1.8.45,2.33.15.53.23.8.21.81,0,0-.04-.06-.09-.19-.05-.13-.13-.33-.22-.58-.17-.52-.43-1.29-.55-2.34-.05-.52-.06-1.12.09-1.76.14-.63.5-1.29,1.04-1.83.54-.54,1.22-.97,1.87-1.47.65-.49,1.29-1.12,1.49-1.98.2-.85-.04-1.81-.45-2.7-.41-.9-1.03-1.76-1.5-2.78-.49-1-.71-2.27-.31-3.45.38-1.17,1.2-2.16,2.14-2.98,1.9-1.68,4.49-2.45,6.42-4.22.95-.87,1.66-2.03,1.83-3.36.22-1.32.02-2.7-.19-4.09-.23-1.39-.5-2.79-.5-4.21-.03-1.41.34-2.86,1.15-4,.79-1.15,1.89-2.01,3.09-2.58.6-.28,1.22-.49,1.86-.62.66-.11,1.23-.17,1.81-.36,1.14-.34,2.19-.93,2.95-1.74.39-.41.65-.86.84-1.39.21-.55.49-1.04.77-1.52,1.18-1.88,2.61-3.39,4.09-4.55.75-.57,1.52-1.07,2.35-1.32.83-.24,1.63-.31,2.38-.32,1.49-.02,2.78.23,3.76.62.98.4,1.62.99,1.88,1.49.15.24.19.45.22.59.03.14.04.21.04.21Z"/>
        </g>
        <g class="cls-5">
          <path d="m543.83,399.32c-5.55-14.56-5.73-31.2-2.32-46.4-.82,8.11.44,16.16,2.12,24.14,1.58,7.48,3.49,7.56,2.13,15.87-.19,1.13-.48,2.25-.86,3.33l-1.07,3.05Z"/>
        </g>
        <g>
          <g>
            <path class="cls-4" d="m558.96,450.92s-38.29,10.6-39.83,11.14c-2.31.81-1.92,9.26,1.67,9.13,1.7-.06,29.41,1.03,32.91.81,3.5-.22,12.92-3.94,12.92-3.94l-7.68-17.14Z"/>
            <path class="cls-10" d="m543.01,465.53c-.19.03-.45-2-1.69-4.11-1.21-2.13-2.83-3.37-2.71-3.52.07-.15,1.97.93,3.26,3.2,1.32,2.26,1.29,4.45,1.13,4.43Z"/>
            <path class="cls-10" d="m547,463.72c-.19.03-.58-1.78-1.59-3.78-1-2.01-2.22-3.4-2.09-3.53.11-.13,1.6,1.13,2.66,3.24,1.07,2.11,1.19,4.06,1.02,4.07Z"/>
            <path class="cls-10" d="m550.74,462.72c-.19-.01-.05-1.92-.9-4.05-.81-2.14-2.22-3.44-2.09-3.58.08-.15,1.79,1.04,2.68,3.35.91,2.3.45,4.33.3,4.28Z"/>
            <path class="cls-10" d="m550.06,457.77c-.07.02-.41-1.05-.41-2.85,0-.89.11-1.97.39-3.12.14-.58.33-1.18.57-1.78.12-.3.27-.65.61-.94.36-.32,1.01-.25,1.31.06.35.31.46.74.51,1.08.04.35.06.68.05,1.01,0,.66-.09,1.29-.24,1.87-.28,1.17-.74,2.15-1.18,2.93-.89,1.55-1.67,2.35-1.72,2.31-.09-.06.55-.95,1.32-2.51.38-.78.77-1.74,1-2.85.12-.55.18-1.14.18-1.75-.02-.59,0-1.32-.35-1.61-.18-.15-.35-.16-.51-.04-.17.13-.31.39-.42.67-.24.57-.43,1.14-.58,1.69-.3,1.1-.45,2.13-.51,2.99-.11,1.73.06,2.82-.04,2.83Z"/>
            <path class="cls-10" d="m550.11,457.38c-.02-.07.91-.39,2.47-.4.78,0,1.71.08,2.72.33.5.13,1.03.26,1.56.58.52.27,1.07.99.87,1.75-.16.71-.77,1.21-1.38,1.37-.61.17-1.2.11-1.72,0-1.05-.24-1.87-.76-2.49-1.22-1.23-.96-1.83-1.7-1.78-1.75.07-.08.79.55,2.04,1.38.63.4,1.41.83,2.35,1.02.47.09.97.12,1.42-.02.45-.12.83-.47.93-.91.11-.43-.15-.82-.57-1.07-.41-.25-.92-.4-1.39-.54-.95-.27-1.83-.4-2.58-.45-1.5-.1-2.44.05-2.45-.05Z"/>
            <path class="cls-10" d="m537.12,465.94c-.19-.02,0-1.66-.75-3.45-.72-1.81-2-2.85-1.87-3,.06-.16,1.66.75,2.47,2.76.83,1.99.32,3.76.16,3.7Z"/>
            <path class="cls-10" d="m563.84,467.71s-.51.29-1.48.7c-.98.37-2.42.89-4.26,1.32-3.66.92-8.88,1.45-14.62,1.39-5.74-.06-10.91-.32-14.66-.47-1.77-.09-3.26-.17-4.44-.24-1.05-.07-1.63-.13-1.62-.17,0-.04.58-.07,1.63-.08,1.18,0,2.67.02,4.44.03,3.88.08,8.99.18,14.65.29,5.71.06,10.87-.39,14.52-1.19,3.66-.75,5.8-1.69,5.84-1.58Z"/>
            <path class="cls-10" d="m564.97,468.58c-.05.09-1.1-.52-2.87-1.3-1.75-.75-4.37-1.65-7.25-1.2-2.89.44-4.93,2.38-6.26,3.73-1.34,1.39-2.13,2.32-2.21,2.25-.06-.05.6-1.07,1.87-2.56.65-.74,1.47-1.6,2.54-2.37,1.06-.78,2.43-1.44,3.96-1.68,3.09-.47,5.81.56,7.54,1.43,1.76.9,2.72,1.65,2.68,1.71Z"/>
          </g>
          <path class="cls-10" d="m526.56,470.23c-.07-.05.26-.55.56-1.45.3-.89.54-2.2.28-3.6-.26-1.4-.95-2.54-1.55-3.26-.6-.73-1.09-1.08-1.04-1.15.03-.05.6.2,1.31.9.7.69,1.51,1.89,1.79,3.41.28,1.52-.04,2.93-.45,3.83-.41.91-.86,1.35-.9,1.31Z"/>
        </g>
        <g>
          <path class="cls-3" d="m566.52,411.36h0c0-.68.54-1.23,1.22-1.24l35.56-.45,14.04-43.53c.47-1.47,1.86-2.44,3.4-2.4l53.98,1.52c2.38.07,3.99,2.46,3.15,4.69l-16.96,44.98-93.18-2.33c-.67-.02-1.21-.57-1.21-1.24Z"/>
          <path class="cls-1" d="m646.28,388.11c-.63-1.17-3.31-1.56-4.59-.59-.81.48-1.44,1.24-1.67,2.15-.36,1.44.45,3.13,1.86,3.59,1.37.44,2.9-.31,3.79-1.43.83-1.04,1.24-2.54.61-3.71Z"/>
        </g>
      </g>
      <g>
        <path class="cls-9" d="m52.9,167.76s.02-.16.08-.46c.07-.33.16-.77.29-1.35.27-1.21.65-2.95,1.15-5.19,1.02-4.52,2.5-11.03,4.32-19.07,3.7-16.12,8.81-38.39,14.47-63.05l.26-1.11.25,1.11c.1.44.21.92.32,1.4,5.63,25.01,10.73,47.65,14.42,64.06,1.82,8.18,3.29,14.82,4.31,19.43.49,2.28.88,4.05,1.15,5.29.12.59.22,1.05.29,1.38.06.31.08.47.08.47,0,0-.05-.15-.13-.46-.08-.33-.19-.78-.34-1.37-.29-1.23-.71-3-1.24-5.27-1.06-4.6-2.59-11.22-4.47-19.39-3.73-16.4-8.88-39.03-14.57-64.03-.11-.48-.22-.96-.32-1.4h.51c-5.72,24.65-10.88,46.9-14.62,63.02-1.89,8.03-3.42,14.52-4.48,19.04-.53,2.23-.95,3.96-1.24,5.16-.14.57-.25,1.02-.34,1.34-.08.3-.13.45-.13.45Z"/>
        <path class="cls-3" d="m52.89,186.49v-15.83h42.23v15.83c0,10.18-8.25,18.43-18.43,18.43h-5.38c-10.18,0-18.43-8.25-18.43-18.43Z"/>
        <path class="cls-9" d="m52.89,170.66s.18.22.48.66c.32.49.75,1.14,1.29,1.96,1.13,1.76,2.71,4.23,4.65,7.26,3.91,6.2,9.27,14.68,15.19,24.06.04.06.07.12.11.17h-.44c5.75-9.43,10.94-17.96,14.73-24.19,1.88-3.05,3.42-5.53,4.51-7.29.52-.82.94-1.48,1.25-1.97.29-.45.45-.68.47-.67.02,0-.11.26-.38.72-.29.5-.68,1.18-1.17,2.02-1.06,1.79-2.54,4.3-4.37,7.38-3.76,6.25-8.91,14.8-14.6,24.27l-.22.36-.23-.36c-.03-.05-.07-.11-.11-.17-5.87-9.41-11.18-17.92-15.06-24.14-1.89-3.07-3.42-5.57-4.51-7.35-.5-.84-.91-1.51-1.21-2.01-.27-.46-.41-.71-.39-.72Z"/>
        <circle class="cls-9" cx="73.59" cy="78.49" r="4.61"/>
        <path class="cls-9" d="m73.59,0c.14,0,.26,17.77.26,39.68s-.12,39.68-.26,39.68-.26-17.76-.26-39.68.12-39.68.26-39.68Z"/>
        <path class="cls-10" d="m75.98,206.63c0,1.09-.88,1.97-1.97,1.97s-1.97-.88-1.97-1.97.88-1.97,1.97-1.97,1.97.88,1.97,1.97Z"/>
        <path class="cls-9" d="m73.13,207.37l.32-.16c-1.15.65-1.82,1.96-1.99,3.27-.18,1.31.06,2.64.34,3.93.09.41.3.92.72.9.38-.02.56-.47.62-.85.13-.78.15-1.58.06-2.37-.05,1,.28,2.02.92,2.79.12.15.3.31.49.26.18-.05.26-.25.31-.43.17-.66.27-1.34.3-2.03.1.59.22,1.21.63,1.65.41.44,1.2.57,1.57.1.25-.31.22-.76.17-1.15-.33-2.35-1.29-4.62-2.76-6.49"/>
        <g>
          <path class="cls-4" d="m55.55,170.66s-18.97-21.87-16.86-22.66c2.11-.79,18.97,11.33,18.97,11.33,0,0-14.49-32.41-11.59-34.78,2.9-2.37,18.18,28.72,18.18,28.72,0,0-2.37-45.32,0-45.85,2.37-.53,11.07,45.32,11.07,45.32,0,0,12.91-41.9,16.6-41.9s-3.95,40.32-3.95,40.32c0,0,15.28-25.82,17.66-22.4,2.37,3.43-10.8,31.36-10.8,31.36,0,0,19.24-16.07,20.03-13.97.79,2.11-20.82,24.51-20.82,24.51h-38.47Z"/>
          <path class="cls-10" d="m52.9,137.72c.13-.06,3.5,7.16,7.52,16.11,4.02,8.96,7.17,16.27,7.04,16.33-.13.06-3.5-7.15-7.52-16.11-4.02-8.96-7.17-16.27-7.04-16.33Z"/>
          <path class="cls-10" d="m68.23,141.75c.14,0,.7,6.35,1.25,14.2.55,7.86.87,14.23.73,14.24-.14,0-.7-6.35-1.25-14.2-.55-7.85-.87-14.23-.73-14.24Z"/>
          <path class="cls-10" d="m89.37,121.45s-.02.18-.11.51c-.11.39-.25.86-.42,1.44-.4,1.32-.93,3.11-1.59,5.28-1.34,4.46-3.14,10.63-4.97,17.49-1.83,6.86-3.35,13.11-4.41,17.64-.52,2.21-.94,4.03-1.25,5.37-.14.58-.26,1.07-.36,1.46-.09.33-.14.5-.16.5-.02,0,0-.18.06-.52.07-.4.16-.88.26-1.48.24-1.28.61-3.13,1.09-5.41.97-4.56,2.43-10.83,4.26-17.7,1.83-6.87,3.69-13.03,5.12-17.47.71-2.22,1.31-4,1.75-5.23.2-.57.37-1.03.51-1.41.12-.32.19-.49.21-.48Z"/>
          <path class="cls-10" d="m98.51,144.81c.12.08-3.59,5.6-8.27,12.33-4.69,6.73-8.58,12.12-8.7,12.04-.12-.08,3.58-5.6,8.27-12.33,4.69-6.73,8.58-12.12,8.7-12.03Z"/>
          <path class="cls-10" d="m61.95,170.19c-.04.05-.69-.39-1.66-1.19-.97-.8-2.27-1.96-3.61-3.33-1.34-1.38-2.47-2.7-3.24-3.69-.77-.99-1.2-1.65-1.14-1.69.12-.09,2.09,2.29,4.76,5.02,2.66,2.73,4.99,4.76,4.9,4.88Z"/>
          <path class="cls-10" d="m73.48,161.5c.14-.01.44,2.01.67,4.51.23,2.51.3,4.55.15,4.56-.14.01-.44-2.01-.67-4.51-.23-2.5-.3-4.55-.15-4.56Z"/>
        </g>
        <path class="cls-1" d="m95.12,180.52s-.58.15-1.63.34c-1.06.19-2.59.43-4.49.69-3.8.52-9.07,1.12-14.92,1.33-5.86.2-11.17-.13-14.98-.63-1.9-.25-3.44-.5-4.49-.72-1.05-.22-1.63-.35-1.62-.39,0-.04.6.03,1.66.19,1.06.16,2.59.36,4.49.56,3.8.4,9.08.67,14.92.47,5.83-.2,11.09-.74,14.9-1.17,1.83-.21,3.35-.39,4.5-.52,1.06-.12,1.66-.17,1.66-.14Z"/>
        <path class="cls-1" d="m95.12,185.23s-.58.15-1.63.34c-1.06.19-2.59.43-4.49.69-3.8.52-9.07,1.12-14.92,1.33-5.86.2-11.17-.13-14.98-.63-1.9-.25-3.44-.5-4.49-.72-1.05-.22-1.63-.35-1.62-.39,0-.04.6.03,1.66.19,1.06.16,2.59.36,4.49.56,3.8.4,9.08.67,14.92.47,5.83-.2,11.09-.74,14.9-1.17,1.83-.21,3.35-.39,4.5-.52,1.06-.12,1.66-.17,1.66-.14Z"/>
      </g>
    </g>
  </g>
</svg>